<svg xmlns="http://www.w3.org/2000/svg" width="228" height="235"><g fill="none" fill-rule="nonzero"><path fill="#131A43" d="M189 164.2c-.2.4-.4.9-.7 1.3-2.2 3.7-2 6.3.9 9.6 2.8 3.3 5.7 6.5 8.5 9.8 2 2.3 3.1 5 2.3 8.1-1.4 5.3-7.3 7.3-12.3 4-3.9-2.5-7.7-5.3-11.5-8-1.7-1.2-3.6-2.3-5.6-1.5-4.2 1.5-7.7 4-10.3 7.7-1 1.4-.6 3.2-.2 4.8 1.3 4.4 2.6 8.7 3.9 13.1.6 1.9.8 3.9.3 5.8-.8 3-2.9 4.8-5.9 5.3-3.4.7-6.2-.7-8-3.6-2.1-3.2-4-6.6-6.1-9.9-.5-.8-.9-1.5-1.4-2.3-2.7-4.1-4.5-4.8-9.3-3.7-1.1.2-2.2.5-3.4.8-4.7 1.1-6.1 2.7-6.9 7.5-.6 4.2-.9 8.5-1.5 12.7-.4 2.7-1.6 4.9-3.7 6.7-2.7 2.2-5.6 2.2-8.3-.1-2.6-2.1-3.7-5-3.9-8.2-.2-4.3-.9-8.6-1.6-12.9-.4-2.6-1.9-4.5-4.6-5.2-2.4-.7-4.9-1.3-7.3-1.7-3.1-.5-5.4.9-7.1 3.6-2.3 3.8-4.6 7.7-7 11.5-1.5 2.5-3.5 4.5-6.5 4.8-5.7.6-9.6-4.1-8.1-10 1.1-4.4 2.6-8.7 3.9-13.1 1.4-4.8.5-7.3-3.8-9.9-.9-.6-1.8-1.3-2.6-2-3.2-2.6-5.9-2.7-9.3-.4l-11.1 7.8c-2.5 1.8-5.3 2.4-8.3 1.3-4.7-1.9-6.2-7.7-2.9-12 2.8-3.7 6-7 9-10.6.8-.9 1.5-1.7 2-2.8 0-.6.6-.7.9-.8 5.5-2.8 11.2-5.3 16.9-7.8.4-.2.8-.4 1.3-.3 1.2.5 1.8 1.7 2.6 2.6 7.8 8.8 17.2 15.2 28.3 19.3 5.7 2.1 11.6 3.4 17.6 3.9 8.7.8 17.3-.2 25.7-2.6 9.4-2.7 17.9-7.3 25.3-13.6 3.3-2.8 6.3-5.9 9-9.3.6-.7 1-1.5 1.8-2 .9-.2 1.5.4 2.2.8 3.1 1.8 6.5 2.9 10.2 2.9 1.7 0 3.3-.4 4.8-1.1.5-.3 1.1-.8 1.8-.3zM158.6 67.7c-5-4.5-10.6-8-16.8-10.5-4.4-1.8-5.9-5.8-3.3-10.2 2.7-4.7 7.8-6.7 12.9-5 4 1.4 7.3.3 10-2.8 2.9-3.2 5.8-6.4 8.9-9.5 3.6-3.6 8.5-3.6 11.7-.1 2.2 2.4 2.5 5.9.7 9.3-2 3.9-4.2 7.7-6.3 11.5-2.5 4.5-2.2 6.8 1.4 10.6.9.9 1.7 1.9 2.5 2.8 2.4 2.8 5.2 3.5 8.6 2.1 4.3-1.8 8.5-3.6 12.7-5.4 2.7-1.1 5.5-1.4 8.1.3 4.6 2.9 4.9 9.1.4 12.7-3.6 2.9-7.4 5.6-11 8.4-.6.5-1.2.9-1.7 1.5-2 2-2.6 4.3-1.7 7 .6 1.8 1.2 3.5 1.7 5.3 1 3.3 3.2 5.2 6.7 5.3 4.1.2 8.2.3 12.4.1 4.6-.1 8.3 1.4 10.4 5.7.7 1.5.7 3.2-.2 4.8-2 3.5-5.2 5.2-9.1 5.8-4 .6-7.8 1.6-11.7 2.7-3.1.8-4.7 2.9-5.2 6-.3 1.9-.5 3.9-.7 5.8-.3 3.6 1.1 5.9 4.5 7.6 4.3 2 8.5 4 12.8 6 3.9 1.9 5.5 5.2 4.6 9-1.1 4.4-4.9 6.6-9.6 5.7-4.6-.9-9.2-1.8-13.7-2.7-1.7-.3-3.3-.2-4.8.5-.8-.3-.4-.9-.3-1.4.3-1.8.3-3.5 0-5.2-.7-4-3.3-6.6-6.7-8.4-1.7-.9-3.3-1.9-5-2.8-.5-.3-1-.5-1.2-1.1.5-3.2 1.3-6.3 1.7-9.5 1.5-12.7-.1-25-5.2-36.7-.5-1.2-1.1-2.4-1.6-3.6 0-.6-.2-1-.7-1.4-1.4-2.5-3-4.8-4.5-7.2-.3-.5-.7-1-.4-1.7.4-.5.9-.6 1.4-.8 9.1-3.5 18.2-6.9 27.2-10.5.1 0 .2-.1.3-.3-4.3.1-8.5-.2-12.7.2-2.5.3-5 .1-7.6.1-5.9 0-11.9.5-17.8.3-.7.1-1.5.3-2.1-.3z"/><path fill="#FBAF18" d="M175.1 88.1c.2.2.9.2.5.8-1.2 1.1-2.7 1.7-4.1 2.5-13.2 6.8-26.4 13.9-39.5 20.9-3.7 2-7.5 3.9-11.4 6.1 7.8.3 15.3-.5 22.8-.3h10.9c.4 0 1 0 1.2.5.2.5-.4.9-.8 1.2-1.4.9-3.1 1.4-4.6 2.2-9.4 4.3-18.7 8.7-28 13.1-1.1.6-2.3.9-3.4 1.5-2.8 1.3-5.6 2.7-8.4 4-5.6 2.6-11.2 5.1-16.7 7.7-8.4 3.8-16.7 7.8-25.1 11.6-2.3 1.1-4.6 2.2-7 3.3-.6.2-1.1.6-1.7.5-6.5 2.8-12.8 5.7-19.2 8.8h-1.3c.5-.9 1.5-1.1 2-1.9 2.4-1.8 5.1-3.3 7.5-5 2.2-1.5 4.5-2.8 6.6-4.6.5-.5 1.2-.8 1.9-.7 5.5-3.6 11.1-7.1 16.6-10.7 10.2-6.7 20.3-13.4 30.5-20.1.6-.4 1.2-.7 1.8-1.4-7.3.4-14.4.8-21.6 1.2 0-.1-.1-.3-.1-.4 3.9-2.9 8.1-5.2 12.1-7.9.5-1 1.6-1.4 2.4-2 7.2-4.6 14.4-9.3 21.6-13.9.3-.2.5-.3.8-.5 4.1-2.5 8.1-5.1 12.1-7.7-3.9.2-7.7.3-11.6.3-2.6 0-5.1.1-7.7-.1-.8 0-1.9 0-2.1-.7-.2-.9.9-1.1 1.5-1.6 2.5-1.8 5.1-3.5 7.7-5.3.4-.3.8-.8 1.5-.6 8.5-5.4 16.9-10.8 25.4-16.3 1.8-1.1 3.6-2.2 5.3-3.5 1.6-1.1 3.2-1.9 5.1-1.8 6.1-.1 12.2-.1 18.3-.2 1.9 0 3.7 0 5.6-.1 5.2-.3 10.4-.3 15.7-.3.6 0 1.3-.1 2.1.4-3.2 1.3-6.2 2.6-9.3 3.8-6.6 2.6-13.3 5.1-20 7.6-.4.1-.7.4-1 .5-.2.3-.4.4-.7.6-6.4 2.6-12.8 5-19.2 7.5h22.8c.6.4 1.5.3 2.2 1z"/><path fill="#131A43" d="M122.7 89.3c-3.5 2.4-7.1 4.8-10.8 7.4 3.5.5 6.8 0 10.1.4.2.2.3.4.3.7-.1 2.5 0 5.1-.9 7.5-.2.1-.4.2-.6.4-1.6-.1-2.8-1.1-4.1-1.9-2.9-1.6-5.7-3.2-8.6-4.7-1.2-.7-2.1-1.5-1.9-3-.6-7.1-1.2-14.1-1.8-21.2-.6-7.4-1.2-14.7-1.9-22.1-.1-1.1.3-1.3 1.2-1.2 1.7.1 3.3 0 5 0 .9 0 1.3-.2 1.2-1.2-.1-1.6-.1-3.1 0-4.7 0-.9-.3-1.2-1.2-1.2-2.8.1-5.6 0-8.5 0-.9 0-1.2-.1-.9-1.2 1.4-4.9 2.7-9.7 4.1-14.6.3-.9.3-1.7-.2-2.5l-3-5.4c-.5-.9-1.2-1.3-2.2-1.2h-3.9c-.9 0-1.2-.2-1.1-1.1.2-1.2-.4-1.5-1.5-1.4-2.1.1-4.1 0-6.2 0-.9 0-1.3-.2-1.3-1.2 0-3.6-.1-3.6 3.6-3.6h3.6c.8 0 1.9.4 2-1.1 0-.5.7-.3 1-.3 1.5 0 3-.1 4.5 0 1.2.1 1.8-.4 2.3-1.4C103.9 4 108.4.7 114.8.7c6.6-.1 12 3.7 14.5 9.8.6 1.4 1.4 2.1 2.9 1.9 1.1-.1 2.3-.1 3.5 0 1.4.2 1.8-.5 1.7-1.7-.1-1.1.3-1.3 1.4-1.3 2.1.1 4.2.1 6.3 0 .9 0 1.1.3 1.1 1.1v12.2c0 1.2-.5 1.5-1.6 1.5-2.2 0-4.3-.1-6.5 0-.9 0-1.1-.3-1.1-1.1 0-2.2 0-2.1-2.3-2.3-3.2-.3-5.7 0-6.8 3.7-.4 1.4-1.8 2.5-3.1 3.4-1 .7-1.2 1.6-.8 2.7 1.4 4.2 2.7 8.5 4.1 12.7.4 1.1.1 1.2-.9 1.2H119c-.9 0-1.4.1-1.3 1.2.1 1.5.1 2.9 0 4.4-.1 1.1.2 1.5 1.4 1.4 1.8-.1 3.6 0 5.4-.1 1 0 1.2.2 1.1 1.2-.5 5.2-.9 10.4-1.4 15.6-.3 7.1-.9 14.1-1.5 21.1zM57.2 160.5c-4.8 3.3-9.7 6.6-14.7 9.6-.4.2-.8.7-1.3.6.2-2-.4-3.7-1.5-5.4-.9-1.4-1.8-2.9-2.6-4.4-1.8-3-4.4-3.9-7.7-3.3-4.7.9-9.4 1.8-14 2.7-4 .8-7.6-1.2-9-4.6-1.5-3.9-.3-7.6 3.5-9.7 4.1-2.2 8.5-4.1 12.7-6.1.7-.3 1.4-.6 2-1 2.1-1.4 3.5-3.3 3.3-5.9-.1-2.5-.3-5-.8-7.5-.5-3.1-2.6-4.7-5.5-5.5-4.4-1.2-9-2.1-13.5-3-2-.4-3.9-1.4-5.4-2.9-3.3-3.3-2.8-8.5 1.1-11.1 2.4-1.6 5-2 7.8-1.9 4.6.2 9.2.1 13.7-.2 2.9-.2 5.1-1.7 7.1-3.6 2.6-2.3 5.5-3.6 9-3.5 4.2.1 7 3.7 5.8 7.7-2 7.2-2.9 14.6-2.6 22.1.5 13 4.5 24.8 11.6 35.6.5.5.8.9 1 1.3z"/><path fill="#CBCBCA" d="M106.2 96.1c0 1.4.9 2 2 2.6 4.2 2.3 8.4 4.7 12.5 7-8.1 5.2-16.2 10.3-24.3 15.5-2.6-1.9-5.4-3.2-8.2-4.7-9-5-18-10.1-27-15-6.8-3.6-13.2-7.9-20.4-10.7-2.4-.9-4.9-1.4-7.4-2.1-.5-.1-1-.3-1.4-.4 8.7-6.8 14.6-15.4 17.8-26 .8.9 1.6 1.9 2.4 2.8 2.6 3.2 5.8 5.6 9.4 7.6 9.5 5.3 19 10.6 28.4 15.9 4.9 2.7 9.9 5.4 14.8 8.2 1.2.6 1.4.3 1.4-.7zM121.8 134.8c4-2.1 8.1-3.9 12.2-5.8l15.6-7.2c.6-.2 1.1.2 1.5.4 9.5 5.3 18.9 10.6 28.4 15.9.5.3 1 .6 1.3 1.2 2.1 1.2 4.3 2.4 6.4 3.6 5.6 3.2 7.9 8.2 6.5 14.6-.1.2-.2.5 0 .7-1.4 2.2-3.1 4.1-4.8 5.9-.2 0-.4 0-.6.1-5.3 3.1-10.3 1.9-15.4-.6-1-.5-1.9-1.3-3.1-1.5-2.8-1.1-5.2-2.8-7.8-4.2-8.5-4.7-17.1-9.5-25.6-14.3-4.6-2.6-9.1-5.1-13.7-7.6-.4-.3-1-.5-.9-1.2z"/><path fill="#CBCBCA" d="M26.6 84.9c0-2.3.9-4.4 1.8-6.5 2.3-5.1 5.4-9.7 9.1-13.9 1.7-2 3.7-3.7 5.8-5.2.4-.3.8-.5 1.2-.7 1-.4 2-.9 3-.1.9.8 1 1.9.8 3.1-1.2 6.7-4.9 12.1-8.9 17.4-2.2 3-4.7 5.7-8 7.7-.4.2-.8.5-1.2.6-2.4 1-3.6.2-3.6-2.4z"/><path fill="#131B43" d="M118.6 136.3c-.4 5.2-.8 10.4-1.3 15.6-.2 1.7-1.4 2.8-3.2 2.7-1.7 0-2.8-1-3-2.9-.3-2.5-.4-5.1-.7-7.6-.1-1.2-.2-2.5-.3-3.7 2.7-1.6 5.5-2.9 8.5-4.1z"/><path fill="#CBCAC9" d="M132.1 111.8c3.1 2.2 6.6 3.7 9.8 5.7.5.3 1.1.4 1.5 1-.5 0-.9.1-1.4.1-7.3.1-14.6.2-21.9.2-.2 0-.4 0-.6-.4l12.6-6.6z"/></g></svg>
